solid OpenSCAD_Model
  facet normal 1 -0 0
    outer loop
      vertex 60 -60 4
      vertex 60 60 0
      vertex 60 60 4
    endloop
  endfacet
  facet normal 1 0 0
    outer loop
      vertex 60 60 0
      vertex 60 -60 4
      vertex 60 -60 0
    endloop
  endfacet
  facet normal 0 0 1
    outer loop
      vertex 60 60 4
      vertex 54 54 4
      vertex 60 -60 4
    endloop
  endfacet
  facet normal 0 0 1
    outer loop
      vertex 60 60 4
      vertex -54 54 4
      vertex 54 54 4
    endloop
  endfacet
  facet normal 0 0 1
    outer loop
      vertex -54 54 4
      vertex -60 60 4
      vertex -54 -54 4
    endloop
  endfacet
  facet normal -0 0 1
    outer loop
      vertex -60 60 4
      vertex -54 54 4
      vertex 60 60 4
    endloop
  endfacet
  facet normal -0 0 1
    outer loop
      vertex 54 -54 4
      vertex 60 -60 4
      vertex 54 54 4
    endloop
  endfacet
  facet normal -0 0 1
    outer loop
      vertex -54 -54 4
      vertex 60 -60 4
      vertex 54 -54 4
    endloop
  endfacet
  facet normal 0 0 1
    outer loop
      vertex -54 -54 4
      vertex -60 -60 4
      vertex 60 -60 4
    endloop
  endfacet
  facet normal 0 0 1
    outer loop
      vertex -60 -60 4
      vertex -54 -54 4
      vertex -60 60 4
    endloop
  endfacet
  facet normal 0 0 -1
    outer loop
      vertex 60 -60 0
      vertex 54 -54 0
      vertex 60 60 0
    endloop
  endfacet
  facet normal 0 0 -1
    outer loop
      vertex 60 -60 0
      vertex -54 -54 0
      vertex 54 -54 0
    endloop
  endfacet
  facet normal -0 0 -1
    outer loop
      vertex -54 -54 0
      vertex -60 -60 0
      vertex -54 54 0
    endloop
  endfacet
  facet normal 0 0 -1
    outer loop
      vertex -60 -60 0
      vertex -54 -54 0
      vertex 60 -60 0
    endloop
  endfacet
  facet normal 0 0 -1
    outer loop
      vertex 54 54 0
      vertex 60 60 0
      vertex 54 -54 0
    endloop
  endfacet
  facet normal 0 0 -1
    outer loop
      vertex -54 54 0
      vertex 60 60 0
      vertex 54 54 0
    endloop
  endfacet
  facet normal 0 0 -1
    outer loop
      vertex -54 54 0
      vertex -60 60 0
      vertex 60 60 0
    endloop
  endfacet
  facet normal 0 0 -1
    outer loop
      vertex -60 60 0
      vertex -54 54 0
      vertex -60 -60 0
    endloop
  endfacet
  facet normal -1 0 0
    outer loop
      vertex -60 -60 0
      vertex -60 60 4
      vertex -60 60 0
    endloop
  endfacet
  facet normal -1 -0 0
    outer loop
      vertex -60 60 4
      vertex -60 -60 0
      vertex -60 -60 4
    endloop
  endfacet
  facet normal 0 1 -0
    outer loop
      vertex 60 60 0
      vertex -60 60 4
      vertex 60 60 4
    endloop
  endfacet
  facet normal 0 1 0
    outer loop
      vertex -60 60 4
      vertex 60 60 0
      vertex -60 60 0
    endloop
  endfacet
  facet normal 0 -1 0
    outer loop
      vertex -60 -60 0
      vertex 60 -60 4
      vertex -60 -60 4
    endloop
  endfacet
  facet normal 0 -1 -0
    outer loop
      vertex 60 -60 4
      vertex -60 -60 0
      vertex 60 -60 0
    endloop
  endfacet
  facet normal -1 0 0
    outer loop
      vertex 54 -54 0
      vertex 54 54 4
      vertex 54 54 0
    endloop
  endfacet
  facet normal -1 -0 0
    outer loop
      vertex 54 54 4
      vertex 54 -54 0
      vertex 54 -54 4
    endloop
  endfacet
  facet normal 1 -0 0
    outer loop
      vertex -54 -54 4
      vertex -54 54 0
      vertex -54 54 4
    endloop
  endfacet
  facet normal 1 0 0
    outer loop
      vertex -54 54 0
      vertex -54 -54 4
      vertex -54 -54 0
    endloop
  endfacet
  facet normal 0 -1 0
    outer loop
      vertex -54 54 0
      vertex 54 54 4
      vertex -54 54 4
    endloop
  endfacet
  facet normal 0 -1 -0
    outer loop
      vertex 54 54 4
      vertex -54 54 0
      vertex 54 54 0
    endloop
  endfacet
  facet normal 0 1 -0
    outer loop
      vertex 54 -54 0
      vertex -54 -54 4
      vertex 54 -54 4
    endloop
  endfacet
  facet normal 0 1 0
    outer loop
      vertex -54 -54 4
      vertex 54 -54 0
      vertex -54 -54 0
    endloop
  endfacet
endsolid OpenSCAD_Model
